<?xml version="1.0" encoding="UTF-8" standalone="no"?>
<!DOCTYPE svg PUBLIC "-//W3C//DTD SVG 1.1//EN"
 "http://www.w3.org/Graphics/SVG/1.1/DTD/svg11.dtd">
<!-- Generated by graphviz version 2.40.1 (20161225.0304)
 -->
<!-- Title: snakemake_dag Pages: 1 -->
<svg width="321pt" height="481pt"
 viewBox="0.00 0.00 320.50 481.00" xmlns="http://www.w3.org/2000/svg" xmlns:xlink="http://www.w3.org/1999/xlink">
<g id="graph0" class="graph" transform="scale(1 1) rotate(0) translate(4 477)">
<title>snakemake_dag</title>
<polygon fill="#ffffff" stroke="transparent" points="-4,4 -4,-477 316.5,-477 316.5,4 -4,4"/>
<!-- 0 -->
<g id="node1" class="node">
<title>0</title>
<path fill="none" stroke="#d8c356" stroke-width="2" d="M163.5,-36C163.5,-36 101.5,-36 101.5,-36 95.5,-36 89.5,-30 89.5,-24 89.5,-24 89.5,-12 89.5,-12 89.5,-6 95.5,0 101.5,0 101.5,0 163.5,0 163.5,0 169.5,0 175.5,-6 175.5,-12 175.5,-12 175.5,-24 175.5,-24 175.5,-30 169.5,-36 163.5,-36"/>
<text text-anchor="middle" x="132.5" y="-15.5" font-family="sans" font-size="10.00" fill="#000000">hard_call_maf</text>
</g>
<!-- 1 -->
<g id="node2" class="node">
<title>1</title>
<path fill="none" stroke="#56d8c9" stroke-width="2" stroke-dasharray="5,2" d="M102,-108C102,-108 43,-108 43,-108 37,-108 31,-102 31,-96 31,-96 31,-84 31,-84 31,-78 37,-72 43,-72 43,-72 102,-72 102,-72 108,-72 114,-78 114,-84 114,-84 114,-96 114,-96 114,-102 108,-108 102,-108"/>
<text text-anchor="middle" x="72.5" y="-87.5" font-family="sans" font-size="10.00" fill="#000000">vcf_to_oxford</text>
</g>
<!-- 1&#45;&gt;0 -->
<g id="edge1" class="edge">
<title>1&#45;&gt;0</title>
<path fill="none" stroke="#c0c0c0" stroke-width="2" d="M87.6405,-71.8314C94.6217,-63.454 103.0391,-53.3531 110.6876,-44.1749"/>
<polygon fill="#c0c0c0" stroke="#c0c0c0" stroke-width="2" points="113.4425,-46.3362 117.1556,-36.4133 108.0649,-41.8548 113.4425,-46.3362"/>
</g>
<!-- 2 -->
<g id="node3" class="node">
<title>2</title>
<path fill="none" stroke="#56c9d8" stroke-width="2" stroke-dasharray="5,2" d="M241,-108C241,-108 144,-108 144,-108 138,-108 132,-102 132,-96 132,-96 132,-84 132,-84 132,-78 138,-72 144,-72 144,-72 241,-72 241,-72 247,-72 253,-78 253,-84 253,-84 253,-96 253,-96 253,-102 247,-108 241,-108"/>
<text text-anchor="middle" x="192.5" y="-87.5" font-family="sans" font-size="10.00" fill="#000000">ancestry_assignment</text>
</g>
<!-- 2&#45;&gt;0 -->
<g id="edge2" class="edge">
<title>2&#45;&gt;0</title>
<path fill="none" stroke="#c0c0c0" stroke-width="2" d="M177.3595,-71.8314C170.3783,-63.454 161.9609,-53.3531 154.3124,-44.1749"/>
<polygon fill="#c0c0c0" stroke="#c0c0c0" stroke-width="2" points="156.9351,-41.8548 147.8444,-36.4133 151.5575,-46.3362 156.9351,-41.8548"/>
</g>
<!-- 3 -->
<g id="node4" class="node">
<title>3</title>
<path fill="none" stroke="#d8a456" stroke-width="2" stroke-dasharray="5,2" d="M133,-185C133,-185 12,-185 12,-185 6,-185 0,-179 0,-173 0,-173 0,-156 0,-156 0,-150 6,-144 12,-144 12,-144 133,-144 133,-144 139,-144 145,-150 145,-156 145,-156 145,-173 145,-173 145,-179 139,-185 133,-185"/>
<text text-anchor="middle" x="72.5" y="-173" font-family="sans" font-size="10.00" fill="#000000">merge_imputed_and_filter</text>
<text text-anchor="middle" x="72.5" y="-162" font-family="sans" font-size="10.00" fill="#000000">data_dir: genotype_qc</text>
<text text-anchor="middle" x="72.5" y="-151" font-family="sans" font-size="10.00" fill="#000000">thresh: 30</text>
</g>
<!-- 3&#45;&gt;1 -->
<g id="edge3" class="edge">
<title>3&#45;&gt;1</title>
<path fill="none" stroke="#c0c0c0" stroke-width="2" d="M72.5,-143.7476C72.5,-135.8767 72.5,-126.7743 72.5,-118.3232"/>
<polygon fill="#c0c0c0" stroke="#c0c0c0" stroke-width="2" points="76.0001,-118.1086 72.5,-108.1087 69.0001,-118.1087 76.0001,-118.1086"/>
</g>
<!-- 4 -->
<g id="node5" class="node">
<title>4</title>
<path fill="none" stroke="#59d856" stroke-width="2" stroke-dasharray="5,2" d="M254.5,-329C254.5,-329 188.5,-329 188.5,-329 182.5,-329 176.5,-323 176.5,-317 176.5,-317 176.5,-305 176.5,-305 176.5,-299 182.5,-293 188.5,-293 188.5,-293 254.5,-293 254.5,-293 260.5,-293 266.5,-299 266.5,-305 266.5,-305 266.5,-317 266.5,-317 266.5,-323 260.5,-329 254.5,-329"/>
<text text-anchor="middle" x="221.5" y="-308.5" font-family="sans" font-size="10.00" fill="#000000">ibd_calculation</text>
</g>
<!-- 4&#45;&gt;2 -->
<g id="edge4" class="edge">
<title>4&#45;&gt;2</title>
<path fill="none" stroke="#c0c0c0" stroke-width="2" d="M213.2425,-292.9097C208.9402,-282.6089 204.0553,-269.3348 201.5,-257 191.6045,-209.2329 190.8211,-152.2355 191.4516,-118.6965"/>
<polygon fill="#c0c0c0" stroke="#c0c0c0" stroke-width="2" points="194.9611,-118.3522 191.7086,-108.269 187.9632,-118.1797 194.9611,-118.3522"/>
</g>
<!-- 7 -->
<g id="node8" class="node">
<title>7</title>
<path fill="none" stroke="#567bd8" stroke-width="2" stroke-dasharray="5,2" d="M300.5,-257C300.5,-257 222.5,-257 222.5,-257 216.5,-257 210.5,-251 210.5,-245 210.5,-245 210.5,-233 210.5,-233 210.5,-227 216.5,-221 222.5,-221 222.5,-221 300.5,-221 300.5,-221 306.5,-221 312.5,-227 312.5,-233 312.5,-233 312.5,-245 312.5,-245 312.5,-251 306.5,-257 300.5,-257"/>
<text text-anchor="middle" x="261.5" y="-236.5" font-family="sans" font-size="10.00" fill="#000000">pre_ancestry_pca</text>
</g>
<!-- 4&#45;&gt;7 -->
<g id="edge9" class="edge">
<title>4&#45;&gt;7</title>
<path fill="none" stroke="#c0c0c0" stroke-width="2" d="M231.5937,-292.8314C236.0597,-284.7925 241.4075,-275.1666 246.3379,-266.2918"/>
<polygon fill="#c0c0c0" stroke="#c0c0c0" stroke-width="2" points="249.4735,-267.8546 251.2704,-257.4133 243.3544,-264.4551 249.4735,-267.8546"/>
</g>
<!-- 5 -->
<g id="node6" class="node">
<title>5</title>
<path fill="none" stroke="#56d87b" stroke-width="2" stroke-dasharray="5,2" d="M275,-182.5C275,-182.5 232,-182.5 232,-182.5 226,-182.5 220,-176.5 220,-170.5 220,-170.5 220,-158.5 220,-158.5 220,-152.5 226,-146.5 232,-146.5 232,-146.5 275,-146.5 275,-146.5 281,-146.5 287,-152.5 287,-158.5 287,-158.5 287,-170.5 287,-170.5 287,-176.5 281,-182.5 275,-182.5"/>
<text text-anchor="middle" x="253.5" y="-162" font-family="sans" font-size="10.00" fill="#000000">pc_project</text>
</g>
<!-- 5&#45;&gt;2 -->
<g id="edge5" class="edge">
<title>5&#45;&gt;2</title>
<path fill="none" stroke="#c0c0c0" stroke-width="2" d="M238.7336,-146.4656C231.2216,-137.2911 221.956,-125.975 213.697,-115.8881"/>
<polygon fill="#c0c0c0" stroke="#c0c0c0" stroke-width="2" points="216.3851,-113.6465 207.3418,-108.1265 210.969,-118.0811 216.3851,-113.6465"/>
</g>
<!-- 6 -->
<g id="node7" class="node">
<title>6</title>
<path fill="none" stroke="#56a2d8" stroke-width="2" stroke-dasharray="5,2" d="M250,-401C250,-401 193,-401 193,-401 187,-401 181,-395 181,-389 181,-389 181,-377 181,-377 181,-371 187,-365 193,-365 193,-365 250,-365 250,-365 256,-365 262,-371 262,-377 262,-377 262,-389 262,-389 262,-395 256,-401 250,-401"/>
<text text-anchor="middle" x="221.5" y="-380.5" font-family="sans" font-size="10.00" fill="#000000">individual_qc</text>
</g>
<!-- 6&#45;&gt;4 -->
<g id="edge6" class="edge">
<title>6&#45;&gt;4</title>
<path fill="none" stroke="#c0c0c0" stroke-width="2" d="M221.5,-364.8314C221.5,-357.131 221.5,-347.9743 221.5,-339.4166"/>
<polygon fill="#c0c0c0" stroke="#c0c0c0" stroke-width="2" points="225.0001,-339.4132 221.5,-329.4133 218.0001,-339.4133 225.0001,-339.4132"/>
</g>
<!-- 7&#45;&gt;5 -->
<g id="edge7" class="edge">
<title>7&#45;&gt;5</title>
<path fill="none" stroke="#c0c0c0" stroke-width="2" d="M259.5634,-220.9656C258.6563,-212.5178 257.5541,-202.2542 256.5396,-192.8064"/>
<polygon fill="#c0c0c0" stroke="#c0c0c0" stroke-width="2" points="259.9942,-192.1956 255.4465,-182.6265 253.0343,-192.9431 259.9942,-192.1956"/>
</g>
<!-- 8 -->
<g id="node9" class="node">
<title>8</title>
<path fill="none" stroke="#c6d856" stroke-width="2" stroke-dasharray="5,2" d="M294.5,-473C294.5,-473 148.5,-473 148.5,-473 142.5,-473 136.5,-467 136.5,-461 136.5,-461 136.5,-449 136.5,-449 136.5,-443 142.5,-437 148.5,-437 148.5,-437 294.5,-437 294.5,-437 300.5,-437 306.5,-443 306.5,-449 306.5,-449 306.5,-461 306.5,-461 306.5,-467 300.5,-473 294.5,-473"/>
<text text-anchor="middle" x="221.5" y="-458" font-family="sans" font-size="10.00" fill="#000000">pre_cleaning</text>
<text text-anchor="middle" x="221.5" y="-447" font-family="sans" font-size="10.00" fill="#000000">dataset: genotype_qc/raw_data</text>
</g>
<!-- 8&#45;&gt;6 -->
<g id="edge8" class="edge">
<title>8&#45;&gt;6</title>
<path fill="none" stroke="#c0c0c0" stroke-width="2" d="M221.5,-436.8314C221.5,-429.131 221.5,-419.9743 221.5,-411.4166"/>
<polygon fill="#c0c0c0" stroke="#c0c0c0" stroke-width="2" points="225.0001,-411.4132 221.5,-401.4133 218.0001,-411.4133 225.0001,-411.4132"/>
</g>
</g>
</svg>
