<?xml version="1.0" encoding="UTF-8" standalone="no"?>
<!DOCTYPE svg PUBLIC "-//W3C//DTD SVG 1.1//EN"
 "http://www.w3.org/Graphics/SVG/1.1/DTD/svg11.dtd">
<!-- Generated by graphviz version 2.40.1 (20161225.0304)
 -->
<!-- Title: snakemake_dag Pages: 1 -->
<svg width="331pt" height="553pt"
 viewBox="0.00 0.00 330.50 553.00" xmlns="http://www.w3.org/2000/svg" xmlns:xlink="http://www.w3.org/1999/xlink">
<g id="graph0" class="graph" transform="scale(1 1) rotate(0) translate(4 549)">
<title>snakemake_dag</title>
<polygon fill="#ffffff" stroke="transparent" points="-4,4 -4,-549 326.5,-549 326.5,4 -4,4"/>
<!-- 0 -->
<g id="node1" class="node">
<title>0</title>
<path fill="none" stroke="#56d8c9" stroke-width="2" d="M310.5,-36C310.5,-36 186.5,-36 186.5,-36 180.5,-36 174.5,-30 174.5,-24 174.5,-24 174.5,-12 174.5,-12 174.5,-6 180.5,0 186.5,0 186.5,0 310.5,0 310.5,0 316.5,0 322.5,-6 322.5,-12 322.5,-12 322.5,-24 322.5,-24 322.5,-30 316.5,-36 310.5,-36"/>
<text text-anchor="middle" x="248.5" y="-15.5" font-family="sans" font-size="10.00" fill="#000000">imputation_batch_dosages</text>
</g>
<!-- 1 -->
<g id="node2" class="node">
<title>1</title>
<path fill="none" stroke="#567bd8" stroke-width="2" d="M231,-108C231,-108 178,-108 178,-108 172,-108 166,-102 166,-96 166,-96 166,-84 166,-84 166,-78 172,-72 178,-72 178,-72 231,-72 231,-72 237,-72 243,-78 243,-84 243,-84 243,-96 243,-96 243,-102 237,-108 231,-108"/>
<text text-anchor="middle" x="204.5" y="-87.5" font-family="sans" font-size="10.00" fill="#000000">dosage_maf</text>
</g>
<!-- 1&#45;&gt;0 -->
<g id="edge1" class="edge">
<title>1&#45;&gt;0</title>
<path fill="none" stroke="#c0c0c0" stroke-width="2" d="M215.6031,-71.8314C220.5674,-63.7079 226.5222,-53.9637 231.9928,-45.0118"/>
<polygon fill="#c0c0c0" stroke="#c0c0c0" stroke-width="2" points="235.0194,-46.7712 237.2474,-36.4133 229.0464,-43.121 235.0194,-46.7712"/>
</g>
<!-- 2 -->
<g id="node3" class="node">
<title>2</title>
<path fill="none" stroke="#78d856" stroke-width="2" stroke-dasharray="5,2" d="M291.5,-329C291.5,-329 213.5,-329 213.5,-329 207.5,-329 201.5,-323 201.5,-317 201.5,-317 201.5,-305 201.5,-305 201.5,-299 207.5,-293 213.5,-293 213.5,-293 291.5,-293 291.5,-293 297.5,-293 303.5,-299 303.5,-305 303.5,-305 303.5,-317 303.5,-317 303.5,-323 297.5,-329 291.5,-329"/>
<text text-anchor="middle" x="252.5" y="-308.5" font-family="sans" font-size="10.00" fill="#000000">pre_ancestry_pca</text>
</g>
<!-- 2&#45;&gt;0 -->
<g id="edge2" class="edge">
<title>2&#45;&gt;0</title>
<path fill="none" stroke="#c0c0c0" stroke-width="2" d="M263.8196,-292.7678C269.4396,-282.6415 275.6294,-269.5789 278.5,-257 295.6769,-181.7298 272.4764,-90.7245 258.2029,-45.8263"/>
<polygon fill="#c0c0c0" stroke="#c0c0c0" stroke-width="2" points="261.4902,-44.618 255.0532,-36.2028 254.8375,-46.7954 261.4902,-44.618"/>
</g>
<!-- 7 -->
<g id="node8" class="node">
<title>7</title>
<path fill="none" stroke="#56c9d8" stroke-width="2" stroke-dasharray="5,2" d="M257,-254.5C257,-254.5 214,-254.5 214,-254.5 208,-254.5 202,-248.5 202,-242.5 202,-242.5 202,-230.5 202,-230.5 202,-224.5 208,-218.5 214,-218.5 214,-218.5 257,-218.5 257,-218.5 263,-218.5 269,-224.5 269,-230.5 269,-230.5 269,-242.5 269,-242.5 269,-248.5 263,-254.5 257,-254.5"/>
<text text-anchor="middle" x="235.5" y="-234" font-family="sans" font-size="10.00" fill="#000000">pc_project</text>
</g>
<!-- 2&#45;&gt;7 -->
<g id="edge10" class="edge">
<title>2&#45;&gt;7</title>
<path fill="none" stroke="#c0c0c0" stroke-width="2" d="M248.3848,-292.9656C246.4364,-284.427 244.0646,-274.0333 241.8897,-264.502"/>
<polygon fill="#c0c0c0" stroke="#c0c0c0" stroke-width="2" points="245.2733,-263.5972 239.6363,-254.6265 238.4487,-265.1546 245.2733,-263.5972"/>
</g>
<!-- 3 -->
<g id="node4" class="node">
<title>3</title>
<path fill="none" stroke="#59d856" stroke-width="2" stroke-dasharray="5,2" d="M106,-180C106,-180 47,-180 47,-180 41,-180 35,-174 35,-168 35,-168 35,-156 35,-156 35,-150 41,-144 47,-144 47,-144 106,-144 106,-144 112,-144 118,-150 118,-156 118,-156 118,-168 118,-168 118,-174 112,-180 106,-180"/>
<text text-anchor="middle" x="76.5" y="-159.5" font-family="sans" font-size="10.00" fill="#000000">vcf_to_oxford</text>
</g>
<!-- 3&#45;&gt;1 -->
<g id="edge3" class="edge">
<title>3&#45;&gt;1</title>
<path fill="none" stroke="#c0c0c0" stroke-width="2" d="M108.7998,-143.8314C125.3234,-134.5368 145.6186,-123.1208 163.2607,-113.1971"/>
<polygon fill="#c0c0c0" stroke="#c0c0c0" stroke-width="2" points="165.2107,-116.116 172.2105,-108.1628 161.7788,-110.015 165.2107,-116.116"/>
</g>
<!-- 4 -->
<g id="node5" class="node">
<title>4</title>
<path fill="none" stroke="#56d87b" stroke-width="2" stroke-dasharray="5,2" d="M253,-180C253,-180 156,-180 156,-180 150,-180 144,-174 144,-168 144,-168 144,-156 144,-156 144,-150 150,-144 156,-144 156,-144 253,-144 253,-144 259,-144 265,-150 265,-156 265,-156 265,-168 265,-168 265,-174 259,-180 253,-180"/>
<text text-anchor="middle" x="204.5" y="-159.5" font-family="sans" font-size="10.00" fill="#000000">ancestry_assignment</text>
</g>
<!-- 4&#45;&gt;1 -->
<g id="edge4" class="edge">
<title>4&#45;&gt;1</title>
<path fill="none" stroke="#c0c0c0" stroke-width="2" d="M204.5,-143.8314C204.5,-136.131 204.5,-126.9743 204.5,-118.4166"/>
<polygon fill="#c0c0c0" stroke="#c0c0c0" stroke-width="2" points="208.0001,-118.4132 204.5,-108.4133 201.0001,-118.4133 208.0001,-118.4132"/>
</g>
<!-- 5 -->
<g id="node6" class="node">
<title>5</title>
<path fill="none" stroke="#c6d856" stroke-width="2" stroke-dasharray="5,2" d="M245.5,-401C245.5,-401 179.5,-401 179.5,-401 173.5,-401 167.5,-395 167.5,-389 167.5,-389 167.5,-377 167.5,-377 167.5,-371 173.5,-365 179.5,-365 179.5,-365 245.5,-365 245.5,-365 251.5,-365 257.5,-371 257.5,-377 257.5,-377 257.5,-389 257.5,-389 257.5,-395 251.5,-401 245.5,-401"/>
<text text-anchor="middle" x="212.5" y="-380.5" font-family="sans" font-size="10.00" fill="#000000">ibd_calculation</text>
</g>
<!-- 5&#45;&gt;2 -->
<g id="edge5" class="edge">
<title>5&#45;&gt;2</title>
<path fill="none" stroke="#c0c0c0" stroke-width="2" d="M222.5937,-364.8314C227.0597,-356.7925 232.4075,-347.1666 237.3379,-338.2918"/>
<polygon fill="#c0c0c0" stroke="#c0c0c0" stroke-width="2" points="240.4735,-339.8546 242.2704,-329.4133 234.3544,-336.4551 240.4735,-339.8546"/>
</g>
<!-- 5&#45;&gt;4 -->
<g id="edge7" class="edge">
<title>5&#45;&gt;4</title>
<path fill="none" stroke="#c0c0c0" stroke-width="2" d="M203.9849,-364.9594C199.6021,-354.6742 194.7224,-341.3991 192.5,-329 183.6396,-279.5656 187.0199,-265.9223 192.5,-216 193.4284,-207.5425 195.1514,-198.4715 197.0078,-190.2246"/>
<polygon fill="#c0c0c0" stroke="#c0c0c0" stroke-width="2" points="200.4527,-190.8678 199.3809,-180.3273 193.6456,-189.2356 200.4527,-190.8678"/>
</g>
<!-- 6 -->
<g id="node7" class="node">
<title>6</title>
<path fill="none" stroke="#d87d56" stroke-width="2" stroke-dasharray="5,2" d="M133,-257C133,-257 12,-257 12,-257 6,-257 0,-251 0,-245 0,-245 0,-228 0,-228 0,-222 6,-216 12,-216 12,-216 133,-216 133,-216 139,-216 145,-222 145,-228 145,-228 145,-245 145,-245 145,-251 139,-257 133,-257"/>
<text text-anchor="middle" x="72.5" y="-245" font-family="sans" font-size="10.00" fill="#000000">merge_imputed_and_filter</text>
<text text-anchor="middle" x="72.5" y="-234" font-family="sans" font-size="10.00" fill="#000000">data_dir: genotype_qc</text>
<text text-anchor="middle" x="72.5" y="-223" font-family="sans" font-size="10.00" fill="#000000">thresh: 30</text>
</g>
<!-- 6&#45;&gt;3 -->
<g id="edge6" class="edge">
<title>6&#45;&gt;3</title>
<path fill="none" stroke="#c0c0c0" stroke-width="2" d="M73.6142,-215.7476C74.0368,-207.8767 74.5255,-198.7743 74.9793,-190.3232"/>
<polygon fill="#c0c0c0" stroke="#c0c0c0" stroke-width="2" points="78.4865,-190.282 75.5277,-180.1087 71.4965,-189.9066 78.4865,-190.282"/>
</g>
<!-- 7&#45;&gt;4 -->
<g id="edge8" class="edge">
<title>7&#45;&gt;4</title>
<path fill="none" stroke="#c0c0c0" stroke-width="2" d="M227.9958,-218.4656C224.3672,-209.7453 219.9335,-199.0901 215.8992,-189.3948"/>
<polygon fill="#c0c0c0" stroke="#c0c0c0" stroke-width="2" points="219.1158,-188.0145 212.0426,-180.1265 212.653,-190.7038 219.1158,-188.0145"/>
</g>
<!-- 8 -->
<g id="node9" class="node">
<title>8</title>
<path fill="none" stroke="#56d8a2" stroke-width="2" stroke-dasharray="5,2" d="M241,-473C241,-473 184,-473 184,-473 178,-473 172,-467 172,-461 172,-461 172,-449 172,-449 172,-443 178,-437 184,-437 184,-437 241,-437 241,-437 247,-437 253,-443 253,-449 253,-449 253,-461 253,-461 253,-467 247,-473 241,-473"/>
<text text-anchor="middle" x="212.5" y="-452.5" font-family="sans" font-size="10.00" fill="#000000">individual_qc</text>
</g>
<!-- 8&#45;&gt;5 -->
<g id="edge9" class="edge">
<title>8&#45;&gt;5</title>
<path fill="none" stroke="#c0c0c0" stroke-width="2" d="M212.5,-436.8314C212.5,-429.131 212.5,-419.9743 212.5,-411.4166"/>
<polygon fill="#c0c0c0" stroke="#c0c0c0" stroke-width="2" points="216.0001,-411.4132 212.5,-401.4133 209.0001,-411.4133 216.0001,-411.4132"/>
</g>
<!-- 9 -->
<g id="node10" class="node">
<title>9</title>
<path fill="none" stroke="#9fd856" stroke-width="2" stroke-dasharray="5,2" d="M285.5,-545C285.5,-545 139.5,-545 139.5,-545 133.5,-545 127.5,-539 127.5,-533 127.5,-533 127.5,-521 127.5,-521 127.5,-515 133.5,-509 139.5,-509 139.5,-509 285.5,-509 285.5,-509 291.5,-509 297.5,-515 297.5,-521 297.5,-521 297.5,-533 297.5,-533 297.5,-539 291.5,-545 285.5,-545"/>
<text text-anchor="middle" x="212.5" y="-530" font-family="sans" font-size="10.00" fill="#000000">pre_cleaning</text>
<text text-anchor="middle" x="212.5" y="-519" font-family="sans" font-size="10.00" fill="#000000">dataset: genotype_qc/raw_data</text>
</g>
<!-- 9&#45;&gt;8 -->
<g id="edge11" class="edge">
<title>9&#45;&gt;8</title>
<path fill="none" stroke="#c0c0c0" stroke-width="2" d="M212.5,-508.8314C212.5,-501.131 212.5,-491.9743 212.5,-483.4166"/>
<polygon fill="#c0c0c0" stroke="#c0c0c0" stroke-width="2" points="216.0001,-483.4132 212.5,-473.4133 209.0001,-483.4133 216.0001,-483.4132"/>
</g>
</g>
</svg>
