<?xml version="1.0" encoding="UTF-8" standalone="no"?>
<!DOCTYPE svg PUBLIC "-//W3C//DTD SVG 1.1//EN"
 "http://www.w3.org/Graphics/SVG/1.1/DTD/svg11.dtd">
<!-- Generated by graphviz version 2.40.1 (20161225.0304)
 -->
<!-- Title: snakemake_dag Pages: 1 -->
<svg width="331pt" height="548pt"
 viewBox="0.00 0.00 330.50 548.00" xmlns="http://www.w3.org/2000/svg" xmlns:xlink="http://www.w3.org/1999/xlink">
<g id="graph0" class="graph" transform="scale(1 1) rotate(0) translate(4 544)">
<title>snakemake_dag</title>
<polygon fill="#ffffff" stroke="transparent" points="-4,4 -4,-544 326.5,-544 326.5,4 -4,4"/>
<!-- 0 -->
<g id="node1" class="node">
<title>0</title>
<path fill="none" stroke="#d8c356" stroke-width="2" d="M310.5,-36C310.5,-36 186.5,-36 186.5,-36 180.5,-36 174.5,-30 174.5,-24 174.5,-24 174.5,-12 174.5,-12 174.5,-6 180.5,0 186.5,0 186.5,0 310.5,0 310.5,0 316.5,0 322.5,-6 322.5,-12 322.5,-12 322.5,-24 322.5,-24 322.5,-30 316.5,-36 310.5,-36"/>
<text text-anchor="middle" x="248.5" y="-15.5" font-family="sans" font-size="10.00" fill="#000000">imputation_batch_dosages</text>
</g>
<!-- 1 -->
<g id="node2" class="node">
<title>1</title>
<path fill="none" stroke="#9fd856" stroke-width="2" d="M231,-108C231,-108 178,-108 178,-108 172,-108 166,-102 166,-96 166,-96 166,-84 166,-84 166,-78 172,-72 178,-72 178,-72 231,-72 231,-72 237,-72 243,-78 243,-84 243,-84 243,-96 243,-96 243,-102 237,-108 231,-108"/>
<text text-anchor="middle" x="204.5" y="-87.5" font-family="sans" font-size="10.00" fill="#000000">dosage_maf</text>
</g>
<!-- 1&#45;&gt;0 -->
<g id="edge1" class="edge">
<title>1&#45;&gt;0</title>
<path fill="none" stroke="#c0c0c0" stroke-width="2" d="M215.6031,-71.8314C220.5674,-63.7079 226.5222,-53.9637 231.9928,-45.0118"/>
<polygon fill="#c0c0c0" stroke="#c0c0c0" stroke-width="2" points="235.0194,-46.7712 237.2474,-36.4133 229.0464,-43.121 235.0194,-46.7712"/>
</g>
<!-- 2 -->
<g id="node3" class="node">
<title>2</title>
<path fill="none" stroke="#d87d56" stroke-width="2" d="M291.5,-324C291.5,-324 213.5,-324 213.5,-324 207.5,-324 201.5,-318 201.5,-312 201.5,-312 201.5,-300 201.5,-300 201.5,-294 207.5,-288 213.5,-288 213.5,-288 291.5,-288 291.5,-288 297.5,-288 303.5,-294 303.5,-300 303.5,-300 303.5,-312 303.5,-312 303.5,-318 297.5,-324 291.5,-324"/>
<text text-anchor="middle" x="252.5" y="-303.5" font-family="sans" font-size="10.00" fill="#000000">pre_ancestry_pca</text>
</g>
<!-- 2&#45;&gt;0 -->
<g id="edge2" class="edge">
<title>2&#45;&gt;0</title>
<path fill="none" stroke="#c0c0c0" stroke-width="2" d="M263.8196,-287.7678C269.4396,-277.6415 275.6294,-264.5789 278.5,-252 295.2456,-178.6198 272.4909,-90.0109 258.3169,-45.8494"/>
<polygon fill="#c0c0c0" stroke="#c0c0c0" stroke-width="2" points="261.5609,-44.5115 255.0982,-36.1161 254.9149,-46.7093 261.5609,-44.5115"/>
</g>
<!-- 7 -->
<g id="node8" class="node">
<title>7</title>
<path fill="none" stroke="#c6d856" stroke-width="2" d="M257,-252C257,-252 214,-252 214,-252 208,-252 202,-246 202,-240 202,-240 202,-228 202,-228 202,-222 208,-216 214,-216 214,-216 257,-216 257,-216 263,-216 269,-222 269,-228 269,-228 269,-240 269,-240 269,-246 263,-252 257,-252"/>
<text text-anchor="middle" x="235.5" y="-231.5" font-family="sans" font-size="10.00" fill="#000000">pc_project</text>
</g>
<!-- 2&#45;&gt;7 -->
<g id="edge10" class="edge">
<title>2&#45;&gt;7</title>
<path fill="none" stroke="#c0c0c0" stroke-width="2" d="M248.2102,-287.8314C246.392,-280.131 244.2301,-270.9743 242.2095,-262.4166"/>
<polygon fill="#c0c0c0" stroke="#c0c0c0" stroke-width="2" points="245.5519,-261.3414 239.8476,-252.4133 238.7392,-262.95 245.5519,-261.3414"/>
</g>
<!-- 3 -->
<g id="node4" class="node">
<title>3</title>
<path fill="none" stroke="#78d856" stroke-width="2" d="M106,-180C106,-180 47,-180 47,-180 41,-180 35,-174 35,-168 35,-168 35,-156 35,-156 35,-150 41,-144 47,-144 47,-144 106,-144 106,-144 112,-144 118,-150 118,-156 118,-156 118,-168 118,-168 118,-174 112,-180 106,-180"/>
<text text-anchor="middle" x="76.5" y="-159.5" font-family="sans" font-size="10.00" fill="#000000">vcf_to_oxford</text>
</g>
<!-- 3&#45;&gt;1 -->
<g id="edge4" class="edge">
<title>3&#45;&gt;1</title>
<path fill="none" stroke="#c0c0c0" stroke-width="2" d="M108.7998,-143.8314C125.3234,-134.5368 145.6186,-123.1208 163.2607,-113.1971"/>
<polygon fill="#c0c0c0" stroke="#c0c0c0" stroke-width="2" points="165.2107,-116.116 172.2105,-108.1628 161.7788,-110.015 165.2107,-116.116"/>
</g>
<!-- 4 -->
<g id="node5" class="node">
<title>4</title>
<path fill="none" stroke="#56d8a2" stroke-width="2" d="M253,-180C253,-180 156,-180 156,-180 150,-180 144,-174 144,-168 144,-168 144,-156 144,-156 144,-150 150,-144 156,-144 156,-144 253,-144 253,-144 259,-144 265,-150 265,-156 265,-156 265,-168 265,-168 265,-174 259,-180 253,-180"/>
<text text-anchor="middle" x="204.5" y="-159.5" font-family="sans" font-size="10.00" fill="#000000">ancestry_assignment</text>
</g>
<!-- 4&#45;&gt;1 -->
<g id="edge3" class="edge">
<title>4&#45;&gt;1</title>
<path fill="none" stroke="#c0c0c0" stroke-width="2" d="M204.5,-143.8314C204.5,-136.131 204.5,-126.9743 204.5,-118.4166"/>
<polygon fill="#c0c0c0" stroke="#c0c0c0" stroke-width="2" points="208.0001,-118.4132 204.5,-108.4133 201.0001,-118.4133 208.0001,-118.4132"/>
</g>
<!-- 5 -->
<g id="node6" class="node">
<title>5</title>
<path fill="none" stroke="#56c9d8" stroke-width="2" d="M245.5,-396C245.5,-396 179.5,-396 179.5,-396 173.5,-396 167.5,-390 167.5,-384 167.5,-384 167.5,-372 167.5,-372 167.5,-366 173.5,-360 179.5,-360 179.5,-360 245.5,-360 245.5,-360 251.5,-360 257.5,-366 257.5,-372 257.5,-372 257.5,-384 257.5,-384 257.5,-390 251.5,-396 245.5,-396"/>
<text text-anchor="middle" x="212.5" y="-375.5" font-family="sans" font-size="10.00" fill="#000000">ibd_calculation</text>
</g>
<!-- 5&#45;&gt;2 -->
<g id="edge5" class="edge">
<title>5&#45;&gt;2</title>
<path fill="none" stroke="#c0c0c0" stroke-width="2" d="M222.5937,-359.8314C227.0597,-351.7925 232.4075,-342.1666 237.3379,-333.2918"/>
<polygon fill="#c0c0c0" stroke="#c0c0c0" stroke-width="2" points="240.4735,-334.8546 242.2704,-324.4133 234.3544,-331.4551 240.4735,-334.8546"/>
</g>
<!-- 5&#45;&gt;4 -->
<g id="edge8" class="edge">
<title>5&#45;&gt;4</title>
<path fill="none" stroke="#c0c0c0" stroke-width="2" d="M203.9849,-359.9594C199.6021,-349.6742 194.7224,-336.3991 192.5,-324 184.0316,-276.7529 187.2624,-263.7134 192.5,-216 193.4284,-207.5425 195.1514,-198.4715 197.0078,-190.2246"/>
<polygon fill="#c0c0c0" stroke="#c0c0c0" stroke-width="2" points="200.4527,-190.8678 199.3809,-180.3273 193.6456,-189.2356 200.4527,-190.8678"/>
</g>
<!-- 6 -->
<g id="node7" class="node">
<title>6</title>
<path fill="none" stroke="#56d8c9" stroke-width="2" d="M133,-252C133,-252 12,-252 12,-252 6,-252 0,-246 0,-240 0,-240 0,-228 0,-228 0,-222 6,-216 12,-216 12,-216 133,-216 133,-216 139,-216 145,-222 145,-228 145,-228 145,-240 145,-240 145,-246 139,-252 133,-252"/>
<text text-anchor="middle" x="72.5" y="-231.5" font-family="sans" font-size="10.00" fill="#000000">merge_imputed_and_filter</text>
</g>
<!-- 6&#45;&gt;3 -->
<g id="edge6" class="edge">
<title>6&#45;&gt;3</title>
<path fill="none" stroke="#c0c0c0" stroke-width="2" d="M73.5094,-215.8314C73.9372,-208.131 74.4459,-198.9743 74.9213,-190.4166"/>
<polygon fill="#c0c0c0" stroke="#c0c0c0" stroke-width="2" points="78.4169,-190.592 75.477,-180.4133 71.4276,-190.2037 78.4169,-190.592"/>
</g>
<!-- 7&#45;&gt;4 -->
<g id="edge7" class="edge">
<title>7&#45;&gt;4</title>
<path fill="none" stroke="#c0c0c0" stroke-width="2" d="M227.6774,-215.8314C224.2891,-207.9617 220.2459,-198.5712 216.4924,-189.8533"/>
<polygon fill="#c0c0c0" stroke="#c0c0c0" stroke-width="2" points="219.5973,-188.214 212.4279,-180.4133 213.1679,-190.9822 219.5973,-188.214"/>
</g>
<!-- 8 -->
<g id="node9" class="node">
<title>8</title>
<path fill="none" stroke="#d85656" stroke-width="2" d="M241,-468C241,-468 184,-468 184,-468 178,-468 172,-462 172,-456 172,-456 172,-444 172,-444 172,-438 178,-432 184,-432 184,-432 241,-432 241,-432 247,-432 253,-438 253,-444 253,-444 253,-456 253,-456 253,-462 247,-468 241,-468"/>
<text text-anchor="middle" x="212.5" y="-447.5" font-family="sans" font-size="10.00" fill="#000000">individual_qc</text>
</g>
<!-- 8&#45;&gt;5 -->
<g id="edge9" class="edge">
<title>8&#45;&gt;5</title>
<path fill="none" stroke="#c0c0c0" stroke-width="2" d="M212.5,-431.8314C212.5,-424.131 212.5,-414.9743 212.5,-406.4166"/>
<polygon fill="#c0c0c0" stroke="#c0c0c0" stroke-width="2" points="216.0001,-406.4132 212.5,-396.4133 209.0001,-406.4133 216.0001,-406.4132"/>
</g>
<!-- 9 -->
<g id="node10" class="node">
<title>9</title>
<path fill="none" stroke="#56d87b" stroke-width="2" d="M240,-540C240,-540 185,-540 185,-540 179,-540 173,-534 173,-528 173,-528 173,-516 173,-516 173,-510 179,-504 185,-504 185,-504 240,-504 240,-504 246,-504 252,-510 252,-516 252,-516 252,-528 252,-528 252,-534 246,-540 240,-540"/>
<text text-anchor="middle" x="212.5" y="-519.5" font-family="sans" font-size="10.00" fill="#000000">pre_cleaning</text>
</g>
<!-- 9&#45;&gt;8 -->
<g id="edge11" class="edge">
<title>9&#45;&gt;8</title>
<path fill="none" stroke="#c0c0c0" stroke-width="2" d="M212.5,-503.8314C212.5,-496.131 212.5,-486.9743 212.5,-478.4166"/>
<polygon fill="#c0c0c0" stroke="#c0c0c0" stroke-width="2" points="216.0001,-478.4132 212.5,-468.4133 209.0001,-478.4133 216.0001,-478.4132"/>
</g>
</g>
</svg>
