<?xml version="1.0" encoding="UTF-8" standalone="no"?>
<!DOCTYPE svg PUBLIC "-//W3C//DTD SVG 1.1//EN"
 "http://www.w3.org/Graphics/SVG/1.1/DTD/svg11.dtd">
<!-- Generated by graphviz version 2.40.1 (20161225.0304)
 -->
<!-- Title: snakemake_dag Pages: 1 -->
<svg width="321pt" height="476pt"
 viewBox="0.00 0.00 320.50 476.00" xmlns="http://www.w3.org/2000/svg" xmlns:xlink="http://www.w3.org/1999/xlink">
<g id="graph0" class="graph" transform="scale(1 1) rotate(0) translate(4 472)">
<title>snakemake_dag</title>
<polygon fill="#ffffff" stroke="transparent" points="-4,4 -4,-472 316.5,-472 316.5,4 -4,4"/>
<!-- 0 -->
<g id="node1" class="node">
<title>0</title>
<path fill="none" stroke="#56a2d8" stroke-width="2" d="M163.5,-36C163.5,-36 101.5,-36 101.5,-36 95.5,-36 89.5,-30 89.5,-24 89.5,-24 89.5,-12 89.5,-12 89.5,-6 95.5,0 101.5,0 101.5,0 163.5,0 163.5,0 169.5,0 175.5,-6 175.5,-12 175.5,-12 175.5,-24 175.5,-24 175.5,-30 169.5,-36 163.5,-36"/>
<text text-anchor="middle" x="132.5" y="-15.5" font-family="sans" font-size="10.00" fill="#000000">hard_call_maf</text>
</g>
<!-- 1 -->
<g id="node2" class="node">
<title>1</title>
<path fill="none" stroke="#56c9d8" stroke-width="2" d="M102,-108C102,-108 43,-108 43,-108 37,-108 31,-102 31,-96 31,-96 31,-84 31,-84 31,-78 37,-72 43,-72 43,-72 102,-72 102,-72 108,-72 114,-78 114,-84 114,-84 114,-96 114,-96 114,-102 108,-108 102,-108"/>
<text text-anchor="middle" x="72.5" y="-87.5" font-family="sans" font-size="10.00" fill="#000000">vcf_to_oxford</text>
</g>
<!-- 1&#45;&gt;0 -->
<g id="edge2" class="edge">
<title>1&#45;&gt;0</title>
<path fill="none" stroke="#c0c0c0" stroke-width="2" d="M87.6405,-71.8314C94.6217,-63.454 103.0391,-53.3531 110.6876,-44.1749"/>
<polygon fill="#c0c0c0" stroke="#c0c0c0" stroke-width="2" points="113.4425,-46.3362 117.1556,-36.4133 108.0649,-41.8548 113.4425,-46.3362"/>
</g>
<!-- 2 -->
<g id="node3" class="node">
<title>2</title>
<path fill="none" stroke="#567bd8" stroke-width="2" d="M241,-108C241,-108 144,-108 144,-108 138,-108 132,-102 132,-96 132,-96 132,-84 132,-84 132,-78 138,-72 144,-72 144,-72 241,-72 241,-72 247,-72 253,-78 253,-84 253,-84 253,-96 253,-96 253,-102 247,-108 241,-108"/>
<text text-anchor="middle" x="192.5" y="-87.5" font-family="sans" font-size="10.00" fill="#000000">ancestry_assignment</text>
</g>
<!-- 2&#45;&gt;0 -->
<g id="edge1" class="edge">
<title>2&#45;&gt;0</title>
<path fill="none" stroke="#c0c0c0" stroke-width="2" d="M177.3595,-71.8314C170.3783,-63.454 161.9609,-53.3531 154.3124,-44.1749"/>
<polygon fill="#c0c0c0" stroke="#c0c0c0" stroke-width="2" points="156.9351,-41.8548 147.8444,-36.4133 151.5575,-46.3362 156.9351,-41.8548"/>
</g>
<!-- 3 -->
<g id="node4" class="node">
<title>3</title>
<path fill="none" stroke="#59d856" stroke-width="2" d="M133,-180C133,-180 12,-180 12,-180 6,-180 0,-174 0,-168 0,-168 0,-156 0,-156 0,-150 6,-144 12,-144 12,-144 133,-144 133,-144 139,-144 145,-150 145,-156 145,-156 145,-168 145,-168 145,-174 139,-180 133,-180"/>
<text text-anchor="middle" x="72.5" y="-159.5" font-family="sans" font-size="10.00" fill="#000000">merge_imputed_and_filter</text>
</g>
<!-- 3&#45;&gt;1 -->
<g id="edge3" class="edge">
<title>3&#45;&gt;1</title>
<path fill="none" stroke="#c0c0c0" stroke-width="2" d="M72.5,-143.8314C72.5,-136.131 72.5,-126.9743 72.5,-118.4166"/>
<polygon fill="#c0c0c0" stroke="#c0c0c0" stroke-width="2" points="76.0001,-118.4132 72.5,-108.4133 69.0001,-118.4133 76.0001,-118.4132"/>
</g>
<!-- 4 -->
<g id="node5" class="node">
<title>4</title>
<path fill="none" stroke="#c6d856" stroke-width="2" d="M254.5,-324C254.5,-324 188.5,-324 188.5,-324 182.5,-324 176.5,-318 176.5,-312 176.5,-312 176.5,-300 176.5,-300 176.5,-294 182.5,-288 188.5,-288 188.5,-288 254.5,-288 254.5,-288 260.5,-288 266.5,-294 266.5,-300 266.5,-300 266.5,-312 266.5,-312 266.5,-318 260.5,-324 254.5,-324"/>
<text text-anchor="middle" x="221.5" y="-303.5" font-family="sans" font-size="10.00" fill="#000000">ibd_calculation</text>
</g>
<!-- 4&#45;&gt;2 -->
<g id="edge5" class="edge">
<title>4&#45;&gt;2</title>
<path fill="none" stroke="#c0c0c0" stroke-width="2" d="M213.2504,-287.908C208.9506,-277.6068 204.0655,-264.3326 201.5,-252 191.913,-205.9146 191.0072,-150.9658 191.5341,-118.3626"/>
<polygon fill="#c0c0c0" stroke="#c0c0c0" stroke-width="2" points="195.0366,-118.2821 191.7572,-108.2076 188.0383,-118.1283 195.0366,-118.2821"/>
</g>
<!-- 7 -->
<g id="node8" class="node">
<title>7</title>
<path fill="none" stroke="#56d8c9" stroke-width="2" d="M300.5,-252C300.5,-252 222.5,-252 222.5,-252 216.5,-252 210.5,-246 210.5,-240 210.5,-240 210.5,-228 210.5,-228 210.5,-222 216.5,-216 222.5,-216 222.5,-216 300.5,-216 300.5,-216 306.5,-216 312.5,-222 312.5,-228 312.5,-228 312.5,-240 312.5,-240 312.5,-246 306.5,-252 300.5,-252"/>
<text text-anchor="middle" x="261.5" y="-231.5" font-family="sans" font-size="10.00" fill="#000000">pre_ancestry_pca</text>
</g>
<!-- 4&#45;&gt;7 -->
<g id="edge9" class="edge">
<title>4&#45;&gt;7</title>
<path fill="none" stroke="#c0c0c0" stroke-width="2" d="M231.5937,-287.8314C236.0597,-279.7925 241.4075,-270.1666 246.3379,-261.2918"/>
<polygon fill="#c0c0c0" stroke="#c0c0c0" stroke-width="2" points="249.4735,-262.8546 251.2704,-252.4133 243.3544,-259.4551 249.4735,-262.8546"/>
</g>
<!-- 5 -->
<g id="node6" class="node">
<title>5</title>
<path fill="none" stroke="#d85656" stroke-width="2" d="M275,-180C275,-180 232,-180 232,-180 226,-180 220,-174 220,-168 220,-168 220,-156 220,-156 220,-150 226,-144 232,-144 232,-144 275,-144 275,-144 281,-144 287,-150 287,-156 287,-156 287,-168 287,-168 287,-174 281,-180 275,-180"/>
<text text-anchor="middle" x="253.5" y="-159.5" font-family="sans" font-size="10.00" fill="#000000">pc_project</text>
</g>
<!-- 5&#45;&gt;2 -->
<g id="edge4" class="edge">
<title>5&#45;&gt;2</title>
<path fill="none" stroke="#c0c0c0" stroke-width="2" d="M238.1071,-143.8314C231.0096,-135.454 222.452,-125.3531 214.676,-116.1749"/>
<polygon fill="#c0c0c0" stroke="#c0c0c0" stroke-width="2" points="217.2348,-113.7807 208.1001,-108.4133 211.8939,-118.3056 217.2348,-113.7807"/>
</g>
<!-- 6 -->
<g id="node7" class="node">
<title>6</title>
<path fill="none" stroke="#56d87b" stroke-width="2" d="M250,-396C250,-396 193,-396 193,-396 187,-396 181,-390 181,-384 181,-384 181,-372 181,-372 181,-366 187,-360 193,-360 193,-360 250,-360 250,-360 256,-360 262,-366 262,-372 262,-372 262,-384 262,-384 262,-390 256,-396 250,-396"/>
<text text-anchor="middle" x="221.5" y="-375.5" font-family="sans" font-size="10.00" fill="#000000">individual_qc</text>
</g>
<!-- 6&#45;&gt;4 -->
<g id="edge6" class="edge">
<title>6&#45;&gt;4</title>
<path fill="none" stroke="#c0c0c0" stroke-width="2" d="M221.5,-359.8314C221.5,-352.131 221.5,-342.9743 221.5,-334.4166"/>
<polygon fill="#c0c0c0" stroke="#c0c0c0" stroke-width="2" points="225.0001,-334.4132 221.5,-324.4133 218.0001,-334.4133 225.0001,-334.4132"/>
</g>
<!-- 7&#45;&gt;5 -->
<g id="edge7" class="edge">
<title>7&#45;&gt;5</title>
<path fill="none" stroke="#c0c0c0" stroke-width="2" d="M259.4813,-215.8314C258.6257,-208.131 257.6083,-198.9743 256.6574,-190.4166"/>
<polygon fill="#c0c0c0" stroke="#c0c0c0" stroke-width="2" points="260.1289,-189.9656 255.5459,-180.4133 253.1717,-190.7386 260.1289,-189.9656"/>
</g>
<!-- 8 -->
<g id="node9" class="node">
<title>8</title>
<path fill="none" stroke="#d87d56" stroke-width="2" d="M249,-468C249,-468 194,-468 194,-468 188,-468 182,-462 182,-456 182,-456 182,-444 182,-444 182,-438 188,-432 194,-432 194,-432 249,-432 249,-432 255,-432 261,-438 261,-444 261,-444 261,-456 261,-456 261,-462 255,-468 249,-468"/>
<text text-anchor="middle" x="221.5" y="-447.5" font-family="sans" font-size="10.00" fill="#000000">pre_cleaning</text>
</g>
<!-- 8&#45;&gt;6 -->
<g id="edge8" class="edge">
<title>8&#45;&gt;6</title>
<path fill="none" stroke="#c0c0c0" stroke-width="2" d="M221.5,-431.8314C221.5,-424.131 221.5,-414.9743 221.5,-406.4166"/>
<polygon fill="#c0c0c0" stroke="#c0c0c0" stroke-width="2" points="225.0001,-406.4132 221.5,-396.4133 218.0001,-406.4133 225.0001,-406.4132"/>
</g>
</g>
</svg>
